# xmcd CD database file
#
# Track frame offsets:
#	150
#	19333
#	41127
#	62505
#	80309
#	101338
#	144807
#
# Disc length: 2407 seconds
#
# Revision: 0
# Processed by: cddbd v1.5.1PL2 Copyright (c) Steve Scherf et al.
# Submitted via: CDex 1.51
#
DISCID=4e096507
DTITLE=Salsa Lo Mejor - El Inspector de la Salsa Vol. 2
DYEAR=1999
DGENRE=Salsa
TTITLE0=Anhelos
TTITLE1=Me Estoy Muriendo por Dentro
TTITLE2=Mentiras Tuyas
TTITLE3=Demasiado Corazon
TTITLE4=Con La Mirada en El Cielo
TTITLE5=Virgin de las Mercedes - lloradas - Detalles
TTITLE6=Ya No Te Puedo Amar - Idilio - Inveirno en Primavera
EXTD=YEAR: 1999
EXTT0=
EXTT1=
EXTT2=
EXTT3=
EXTT4=
EXTT5=
EXTT6=
PLAYORDER=
